<svg width="237" height="99" viewBox="0 0 237 99" fill="none" xmlns="http://www.w3.org/2000/svg">
<path d="M24 72.5C10.7467 72.5 0 61.7533 0 48.5H24V72.5Z" fill="#703BF7"/>
<path d="M0 24.5C13.2533 24.5 24 35.2467 24 48.5H0V24.5Z" fill="#703BF7"/>
<path d="M24 72.5C37.2533 72.5 48 61.7533 48 48.5H24V72.5Z" fill="#703BF7"/>
<path d="M48 48.5C48 35.2467 37.2533 24.5 24 24.5V48.5H48Z" fill="#703BF7"/>
<path d="M60.92 65V42.6H74.12V45.928H64.248V51.336H72.584V54.664H64.248V65H60.92ZM82.085 65.416C80.613 65.416 79.269 65.0373 78.053 64.28C76.8477 63.5227 75.8823 62.5093 75.157 61.24C74.4423 59.96 74.085 58.5467 74.085 57C74.085 55.8267 74.293 54.7333 74.709 53.72C75.125 52.696 75.6957 51.8 76.421 51.032C77.157 50.2533 78.0103 49.6453 78.981 49.208C79.9517 48.7707 80.9863 48.552 82.085 48.552C83.557 48.552 84.8957 48.9307 86.101 49.688C87.317 50.4453 88.2823 51.464 88.997 52.744C89.7223 54.024 90.085 55.4427 90.085 57C90.085 58.1627 89.877 59.2507 89.461 60.264C89.045 61.2773 88.469 62.1733 87.733 62.952C87.0077 63.72 86.1597 64.3227 85.189 64.76C84.229 65.1973 83.1943 65.416 82.085 65.416ZM82.085 62.088C82.9703 62.088 83.765 61.8533 84.469 61.384C85.173 60.9147 85.7277 60.296 86.133 59.528C86.549 58.7493 86.757 57.9067 86.757 57C86.757 56.072 86.5437 55.2187 86.117 54.44C85.701 53.6613 85.141 53.0427 84.437 52.584C83.733 52.1147 82.949 51.88 82.085 51.88C81.2103 51.88 80.4157 52.1147 79.701 52.584C78.997 53.0533 78.437 53.6773 78.021 54.456C77.6157 55.2347 77.413 56.0827 77.413 57C77.413 57.9493 77.6263 58.808 78.053 59.576C78.4797 60.344 79.045 60.9573 79.749 61.416C80.4637 61.864 81.2423 62.088 82.085 62.088ZM92.67 65V49H95.998V50.696C96.5527 50.0347 97.2353 49.512 98.046 49.128C98.8567 48.744 99.7313 48.552 100.67 48.552C101.267 48.552 101.859 48.632 102.446 48.792L101.118 52.152C100.702 51.992 100.286 51.912 99.87 51.912C99.166 51.912 98.5207 52.088 97.934 52.44C97.3473 52.7813 96.878 53.2453 96.526 53.832C96.174 54.4187 95.998 55.0693 95.998 55.784V65H92.67ZM104.42 65V49H107.748V50.696C108.303 50.0347 108.98 49.512 109.78 49.128C110.591 48.744 111.465 48.552 112.404 48.552C113.545 48.552 114.596 48.8293 115.556 49.384C116.516 49.928 117.279 50.6533 117.844 51.56C118.409 50.6533 119.161 49.928 120.1 49.384C121.049 48.8293 122.095 48.552 123.236 48.552C124.42 48.552 125.497 48.84 126.468 49.416C127.439 49.992 128.212 50.7653 128.788 51.736C129.364 52.7067 129.652 53.784 129.652 54.968V65H126.324V55.816C126.324 55.112 126.153 54.4667 125.812 53.88C125.471 53.2933 125.012 52.8187 124.436 52.456C123.86 52.0933 123.22 51.912 122.516 51.912C121.812 51.912 121.172 52.0827 120.596 52.424C120.02 52.7653 119.561 53.2293 119.22 53.816C118.879 54.4027 118.708 55.0693 118.708 55.816V65H115.38V55.816C115.38 55.0693 115.209 54.4027 114.868 53.816C114.527 53.2293 114.063 52.7653 113.476 52.424C112.9 52.0827 112.26 51.912 111.556 51.912C110.863 51.912 110.223 52.0933 109.636 52.456C109.06 52.8187 108.601 53.2933 108.26 53.88C107.919 54.4667 107.748 55.112 107.748 55.816V65H104.42ZM140.545 65V42.6H148.497C149.649 42.6 150.689 42.8347 151.617 43.304C152.556 43.7733 153.297 44.4507 153.841 45.336C154.396 46.2107 154.673 47.2613 154.673 48.488C154.673 49.0853 154.577 49.672 154.385 50.248C154.193 50.824 153.921 51.3307 153.569 51.768C153.217 52.2053 152.79 52.5147 152.289 52.696C152.972 52.8667 153.537 53.176 153.985 53.624C154.444 54.0613 154.806 54.5733 155.073 55.16C155.34 55.7467 155.526 56.3547 155.633 56.984C155.75 57.6133 155.809 58.2107 155.809 58.776C155.809 59.9707 155.521 61.0373 154.945 61.976C154.369 62.9147 153.596 63.656 152.625 64.2C151.665 64.7333 150.604 65 149.441 65H140.545ZM143.873 62.12H149.121C149.804 62.12 150.422 61.9493 150.977 61.608C151.542 61.2667 151.99 60.7973 152.321 60.2C152.652 59.592 152.817 58.9093 152.817 58.152C152.817 57.4907 152.652 56.8667 152.321 56.28C151.99 55.6827 151.542 55.2027 150.977 54.84C150.422 54.4773 149.804 54.296 149.121 54.296H143.873V62.12ZM143.873 51.464H148.145C149.02 51.464 149.772 51.1973 150.401 50.664C151.03 50.1307 151.345 49.4 151.345 48.472C151.345 47.48 151.03 46.7387 150.401 46.248C149.772 45.7467 149.02 45.496 148.145 45.496H143.873V51.464ZM157.874 59V49H161.202V58.184C161.202 58.8987 161.378 59.5493 161.73 60.136C162.082 60.7227 162.551 61.192 163.138 61.544C163.724 61.8853 164.37 62.056 165.074 62.056C165.788 62.056 166.434 61.8853 167.01 61.544C167.596 61.192 168.06 60.7227 168.402 60.136C168.754 59.5493 168.93 58.8987 168.93 58.184V49H172.258L172.274 65H168.946L168.93 63.272C168.386 63.9333 167.708 64.456 166.898 64.84C166.087 65.224 165.218 65.416 164.29 65.416C163.106 65.416 162.028 65.128 161.058 64.552C160.087 63.976 159.314 63.2027 158.738 62.232C158.162 61.2613 157.874 60.184 157.874 59ZM175.483 49H178.811V65H175.483V49ZM177.179 46.68C176.667 46.68 176.24 46.5147 175.899 46.184C175.557 45.8533 175.387 45.4373 175.387 44.936C175.387 44.4453 175.557 44.0347 175.899 43.704C176.24 43.3627 176.661 43.192 177.163 43.192C177.653 43.192 178.069 43.3627 178.411 43.704C178.752 44.0347 178.923 44.4453 178.923 44.936C178.923 45.4373 178.752 45.8533 178.411 46.184C178.08 46.5147 177.669 46.68 177.179 46.68ZM182.701 65V41H186.029V65H182.701ZM202.103 41H205.431V65H202.103V62.648C201.58 63.48 200.897 64.152 200.055 64.664C199.212 65.1653 198.225 65.416 197.095 65.416C195.932 65.416 194.844 65.1973 193.831 64.76C192.817 64.3227 191.921 63.72 191.143 62.952C190.375 62.1733 189.772 61.2773 189.335 60.264C188.897 59.2507 188.679 58.1627 188.679 57C188.679 55.8373 188.897 54.7493 189.335 53.736C189.772 52.712 190.375 51.816 191.143 51.048C191.921 50.2693 192.817 49.6613 193.831 49.224C194.844 48.7867 195.932 48.568 197.095 48.568C198.225 48.568 199.212 48.824 200.055 49.336C200.897 49.8373 201.58 50.4987 202.103 51.32V41ZM197.127 62.2C198.065 62.2 198.887 61.9707 199.591 61.512C200.295 61.0427 200.839 60.4133 201.223 59.624C201.617 58.8347 201.815 57.96 201.815 57C201.815 56.0293 201.617 55.1493 201.223 54.36C200.828 53.5707 200.279 52.9467 199.575 52.488C198.881 52.0187 198.065 51.784 197.127 51.784C196.199 51.784 195.351 52.0187 194.583 52.488C193.825 52.9573 193.217 53.5867 192.759 54.376C192.311 55.1653 192.087 56.04 192.087 57C192.087 57.9707 192.316 58.8507 192.775 59.64C193.244 60.4187 193.857 61.0427 194.615 61.512C195.383 61.9707 196.22 62.2 197.127 62.2ZM216.085 65.416C214.613 65.416 213.269 65.0373 212.053 64.28C210.848 63.5227 209.882 62.5093 209.157 61.24C208.442 59.96 208.085 58.5467 208.085 57C208.085 55.8267 208.293 54.7333 208.709 53.72C209.125 52.696 209.696 51.8 210.421 51.032C211.157 50.2533 212.01 49.6453 212.981 49.208C213.952 48.7707 214.986 48.552 216.085 48.552C217.312 48.552 218.437 48.808 219.461 49.32C220.485 49.8213 221.36 50.52 222.085 51.416C222.81 52.3013 223.344 53.3253 223.685 54.488C224.026 55.64 224.128 56.8667 223.989 58.168H211.653C211.792 58.904 212.058 59.5707 212.453 60.168C212.858 60.7547 213.37 61.2187 213.989 61.56C214.618 61.9013 215.317 62.0773 216.085 62.088C216.896 62.088 217.632 61.8853 218.293 61.48C218.965 61.0747 219.514 60.5147 219.941 59.8L223.317 60.584C222.677 62.0027 221.712 63.1653 220.421 64.072C219.13 64.968 217.685 65.416 216.085 65.416ZM211.541 55.624H220.629C220.522 54.856 220.25 54.1627 219.813 53.544C219.386 52.9147 218.848 52.4187 218.197 52.056C217.557 51.6827 216.853 51.496 216.085 51.496C215.328 51.496 214.624 51.6773 213.973 52.04C213.333 52.4027 212.8 52.8987 212.373 53.528C211.957 54.1467 211.68 54.8453 211.541 55.624ZM226.639 65V49H229.967V50.696C230.521 50.0347 231.204 49.512 232.015 49.128C232.825 48.744 233.7 48.552 234.639 48.552C235.236 48.552 235.828 48.632 236.415 48.792L235.087 52.152C234.671 51.992 234.255 51.912 233.839 51.912C233.135 51.912 232.489 52.088 231.903 52.44C231.316 52.7813 230.847 53.2453 230.495 53.832C230.143 54.4187 229.967 55.0693 229.967 55.784V65H226.639Z" fill="white"/>
</svg>
