<svg width="586" height="76" viewBox="0 0 586 76" fill="none" xmlns="http://www.w3.org/2000/svg">
<path d="M0.0681818 74V4.18182H46.2955V16.3523H14.8295V32.9886H43.2273V45.1591H14.8295V74H0.0681818ZM75.767 75.0227C70.4716 75.0227 65.892 73.8977 62.0284 71.6477C58.1875 69.375 55.2216 66.2159 53.1307 62.1705C51.0398 58.1023 49.9943 53.3864 49.9943 48.0227C49.9943 42.6136 51.0398 37.8864 53.1307 33.8409C55.2216 29.7727 58.1875 26.6136 62.0284 24.3636C65.892 22.0909 70.4716 20.9545 75.767 20.9545C81.0625 20.9545 85.6307 22.0909 89.4716 24.3636C93.3352 26.6136 96.3125 29.7727 98.4034 33.8409C100.494 37.8864 101.54 42.6136 101.54 48.0227C101.54 53.3864 100.494 58.1023 98.4034 62.1705C96.3125 66.2159 93.3352 69.375 89.4716 71.6477C85.6307 73.8977 81.0625 75.0227 75.767 75.0227ZM75.8352 63.7727C78.2443 63.7727 80.2557 63.0909 81.8693 61.7273C83.483 60.3409 84.6989 58.4545 85.517 56.0682C86.358 53.6818 86.7784 50.9659 86.7784 47.9205C86.7784 44.875 86.358 42.1591 85.517 39.7727C84.6989 37.3864 83.483 35.5 81.8693 34.1136C80.2557 32.7273 78.2443 32.0341 75.8352 32.0341C73.4034 32.0341 71.358 32.7273 69.6989 34.1136C68.0625 35.5 66.8239 37.3864 65.983 39.7727C65.1648 42.1591 64.7557 44.875 64.7557 47.9205C64.7557 50.9659 65.1648 53.6818 65.983 56.0682C66.8239 58.4545 68.0625 60.3409 69.6989 61.7273C71.358 63.0909 73.4034 63.7727 75.8352 63.7727ZM110.983 74V21.6364H125.062V30.7727H125.608C126.563 27.5227 128.165 25.0682 130.415 23.4091C132.665 21.7273 135.256 20.8864 138.188 20.8864C138.915 20.8864 139.699 20.9318 140.54 21.0227C141.381 21.1136 142.119 21.2386 142.756 21.3977V34.2841C142.074 34.0795 141.131 33.8977 139.926 33.7386C138.722 33.5795 137.619 33.5 136.619 33.5C134.483 33.5 132.574 33.9659 130.892 34.8977C129.233 35.8068 127.915 37.0795 126.938 38.7159C125.983 40.3523 125.506 42.2386 125.506 44.375V74H110.983ZM150.264 74V21.6364H164.105V30.875H164.719C165.81 27.8068 167.628 25.3864 170.173 23.6136C172.719 21.8409 175.764 20.9545 179.31 20.9545C182.901 20.9545 185.957 21.8523 188.48 23.6477C191.003 25.4205 192.685 27.8295 193.526 30.875H194.071C195.139 27.875 197.071 25.4773 199.866 23.6818C202.685 21.8636 206.014 20.9545 209.855 20.9545C214.741 20.9545 218.707 22.5114 221.753 25.625C224.821 28.7159 226.355 33.1023 226.355 38.7841V74H211.866V41.6477C211.866 38.7386 211.094 36.5568 209.548 35.1023C208.003 33.6477 206.071 32.9205 203.753 32.9205C201.116 32.9205 199.06 33.7614 197.582 35.4432C196.105 37.1023 195.366 39.2955 195.366 42.0227V74H181.287V41.3409C181.287 38.7727 180.548 36.7273 179.071 35.2045C177.616 33.6818 175.696 32.9205 173.31 32.9205C171.696 32.9205 170.241 33.3295 168.946 34.1477C167.673 34.9432 166.662 36.0682 165.912 37.5227C165.162 38.9545 164.787 40.6364 164.787 42.5682V74H150.264ZM260.318 74V4.18182H288.273C293.409 4.18182 297.693 4.94318 301.125 6.46591C304.557 7.98864 307.136 10.1023 308.864 12.8068C310.591 15.4886 311.455 18.5795 311.455 22.0795C311.455 24.8068 310.909 27.2045 309.818 29.2727C308.727 31.3182 307.227 33 305.318 34.3182C303.432 35.6136 301.273 36.5341 298.841 37.0795V37.7614C301.5 37.875 303.989 38.625 306.307 40.0114C308.648 41.3977 310.545 43.3409 312 45.8409C313.455 48.3182 314.182 51.2727 314.182 54.7045C314.182 58.4091 313.261 61.7159 311.42 64.625C309.602 67.5114 306.909 69.7955 303.341 71.4773C299.773 73.1591 295.375 74 290.148 74H260.318ZM275.08 61.9318H287.114C291.227 61.9318 294.227 61.1477 296.114 59.5795C298 57.9886 298.943 55.875 298.943 53.2386C298.943 51.3068 298.477 49.6023 297.545 48.125C296.614 46.6477 295.284 45.4886 293.557 44.6477C291.852 43.8068 289.818 43.3864 287.455 43.3864H275.08V61.9318ZM275.08 33.3977H286.023C288.045 33.3977 289.841 33.0455 291.409 32.3409C293 31.6136 294.25 30.5909 295.159 29.2727C296.091 27.9545 296.557 26.375 296.557 24.5341C296.557 22.0114 295.659 19.9773 293.864 18.4318C292.091 16.8864 289.568 16.1136 286.295 16.1136H275.08V33.3977ZM357.094 51.7045V21.6364H371.616V74H357.673V64.4886H357.128C355.946 67.5568 353.98 70.0227 351.23 71.8864C348.503 73.75 345.173 74.6818 341.241 74.6818C337.741 74.6818 334.662 73.8864 332.003 72.2955C329.344 70.7045 327.264 68.4432 325.764 65.5114C324.287 62.5795 323.537 59.0682 323.514 54.9773V21.6364H338.037V52.3864C338.06 55.4773 338.889 57.9205 340.526 59.7159C342.162 61.5114 344.355 62.4091 347.105 62.4091C348.855 62.4091 350.491 62.0114 352.014 61.2159C353.537 60.3977 354.764 59.1932 355.696 57.6023C356.651 56.0114 357.116 54.0455 357.094 51.7045ZM383.233 74V21.6364H397.756V74H383.233ZM390.528 14.8864C388.369 14.8864 386.517 14.1705 384.972 12.7386C383.449 11.2841 382.688 9.54545 382.688 7.52272C382.688 5.52272 383.449 3.80682 384.972 2.375C386.517 0.920452 388.369 0.193178 390.528 0.193178C392.688 0.193178 394.528 0.920452 396.051 2.375C397.597 3.80682 398.369 5.52272 398.369 7.52272C398.369 9.54545 397.597 11.2841 396.051 12.7386C394.528 14.1705 392.688 14.8864 390.528 14.8864ZM423.912 4.18182V74H409.389V4.18182H423.912ZM454.841 74.8523C450.864 74.8523 447.261 73.8295 444.034 71.7841C440.83 69.7159 438.284 66.6818 436.398 62.6818C434.534 58.6591 433.602 53.7273 433.602 47.8864C433.602 41.8864 434.568 36.8977 436.5 32.9205C438.432 28.9205 441 25.9318 444.205 23.9545C447.432 21.9545 450.966 20.9545 454.807 20.9545C457.739 20.9545 460.182 21.4545 462.136 22.4545C464.114 23.4318 465.705 24.6591 466.909 26.1364C468.136 27.5909 469.068 29.0227 469.705 30.4318H470.148V4.18182H484.636V74H470.318V65.6136H469.705C469.023 67.0682 468.057 68.5114 466.807 69.9432C465.58 71.3523 463.977 72.5227 462 73.4545C460.045 74.3864 457.659 74.8523 454.841 74.8523ZM459.443 63.2955C461.784 63.2955 463.761 62.6591 465.375 61.3864C467.011 60.0909 468.261 58.2841 469.125 55.9659C470.011 53.6477 470.455 50.9318 470.455 47.8182C470.455 44.7045 470.023 42 469.159 39.7045C468.295 37.4091 467.045 35.6364 465.409 34.3864C463.773 33.1364 461.784 32.5114 459.443 32.5114C457.057 32.5114 455.045 33.1591 453.409 34.4545C451.773 35.75 450.534 37.5455 449.693 39.8409C448.852 42.1364 448.432 44.7955 448.432 47.8182C448.432 50.8636 448.852 53.5568 449.693 55.8977C450.557 58.2159 451.795 60.0341 453.409 61.3523C455.045 62.6477 457.057 63.2955 459.443 63.2955ZM520.44 75.0227C515.054 75.0227 510.418 73.9318 506.531 71.75C502.668 69.5455 499.69 66.4318 497.599 62.4091C495.509 58.3636 494.463 53.5795 494.463 48.0568C494.463 42.6705 495.509 37.9432 497.599 33.875C499.69 29.8068 502.634 26.6364 506.429 24.3636C510.247 22.0909 514.724 20.9545 519.861 20.9545C523.315 20.9545 526.531 21.5114 529.509 22.625C532.509 23.7159 535.122 25.3636 537.349 27.5682C539.599 29.7727 541.349 32.5455 542.599 35.8864C543.849 39.2045 544.474 43.0909 544.474 47.5455V51.5341H500.259V42.5341H530.804C530.804 40.4432 530.349 38.5909 529.44 36.9773C528.531 35.3636 527.27 34.1023 525.656 33.1932C524.065 32.2614 522.213 31.7955 520.099 31.7955C517.895 31.7955 515.94 32.3068 514.236 33.3295C512.554 34.3295 511.236 35.6818 510.281 37.3864C509.327 39.0682 508.838 40.9432 508.815 43.0114V51.5682C508.815 54.1591 509.293 56.3977 510.247 58.2841C511.224 60.1705 512.599 61.625 514.372 62.6477C516.145 63.6705 518.247 64.1818 520.679 64.1818C522.293 64.1818 523.77 63.9545 525.111 63.5C526.452 63.0455 527.599 62.3636 528.554 61.4545C529.509 60.5455 530.236 59.4318 530.736 58.1136L544.168 59C543.486 62.2273 542.088 65.0455 539.974 67.4545C537.884 69.8409 535.179 71.7045 531.861 73.0455C528.565 74.3636 524.759 75.0227 520.44 75.0227ZM553.952 74V21.6364H568.031V30.7727H568.577C569.531 27.5227 571.134 25.0682 573.384 23.4091C575.634 21.7273 578.224 20.8864 581.156 20.8864C581.884 20.8864 582.668 20.9318 583.509 21.0227C584.349 21.1136 585.088 21.2386 585.724 21.3977V34.2841C585.043 34.0795 584.099 33.8977 582.895 33.7386C581.69 33.5795 580.588 33.5 579.588 33.5C577.452 33.5 575.543 33.9659 573.861 34.8977C572.202 35.8068 570.884 37.0795 569.906 38.7159C568.952 40.3523 568.474 42.2386 568.474 44.375V74H553.952Z" fill="url(#paint0_linear_24_5)"/>
<defs>
<linearGradient id="paint0_linear_24_5" x1="-48" y1="39" x2="724" y2="38" gradientUnits="userSpaceOnUse">
<stop stop-color="#919191" stop-opacity="0.8"/>
<stop offset="0.913243" stop-color="#2B1EC0" stop-opacity="0.5"/>
</linearGradient>
</defs>
</svg>
